<?xml version="1.0" encoding="UTF-8"?>
<!DOCTYPE svg PUBLIC "-//W3C//DTD SVG 1.1//EN" "http://www.w3.org/Graphics/SVG/1.1/DTD/svg11.dtd">
<svg xmlns="http://www.w3.org/2000/svg" version="1.1" width="409px" height="500px" style="shape-rendering:geometricPrecision; text-rendering:geometricPrecision; image-rendering:optimizeQuality; fill-rule:evenodd; clip-rule:evenodd" xmlns:xlink="http://www.w3.org/1999/xlink">
<g><path style="opacity:0.378" fill="#494949" d="M 196.5,-0.5 C 198.167,-0.5 199.833,-0.5 201.5,-0.5C 200.866,0.94678 199.699,1.61345 198,1.5C 196.93,1.47196 196.097,1.13863 195.5,0.5C 196.167,0.5 196.5,0.166667 196.5,-0.5 Z"/></g>
<g><path style="opacity:0.87" fill="#000000" d="M 201.5,-0.5 C 204.167,-0.5 206.833,-0.5 209.5,-0.5C 209.611,0.117425 209.944,0.617425 210.5,1C 212.866,1.43957 215.199,1.93957 217.5,2.5C 218.653,8.3188 218.819,14.3188 218,20.5C 215.695,22.9305 212.862,23.9305 209.5,23.5C 208.775,50.1645 208.109,76.8311 207.5,103.5C 246.835,103.333 286.168,103.5 325.5,104C 359.667,110.167 379.833,130.333 386,164.5C 386.5,177.496 386.667,190.496 386.5,203.5C 392.32,204.327 397.82,205.993 403,208.5C 403.667,227.5 403.667,246.5 403,265.5C 397.82,268.007 392.32,269.673 386.5,270.5C 390.627,304.734 378.294,330.9 349.5,349C 341.914,352.751 333.914,355.084 325.5,356C 342.688,367.205 355.022,382.372 362.5,401.5C 373.945,401.954 381.278,407.621 384.5,418.5C 384.471,420.029 383.804,421.196 382.5,422C 372.608,426.294 362.608,429.961 352.5,433C 351.667,432.167 350.833,431.333 350,430.5C 355.897,455.119 352.064,478.119 338.5,499.5C 335.833,499.5 333.167,499.5 330.5,499.5C 295.735,493.709 260.735,488.542 225.5,484C 225,483.5 224.5,483 224,482.5C 224.286,467.812 228.119,454.145 235.5,441.5C 236.512,413.174 237.178,384.841 237.5,356.5C 240.932,356.127 243.266,357.46 244.5,360.5C 243.996,383.733 243.33,406.9 242.5,430C 248.975,423.202 255.975,416.535 263.5,410C 281.41,397.55 300.743,394.55 321.5,401C 331.887,405.387 339.72,412.554 345,422.5C 345.257,418.623 346.257,414.957 348,411.5C 350.522,408.978 353.022,406.478 355.5,404C 347.446,382.612 333.113,366.945 312.5,357C 289.427,356.823 266.427,356.323 243.5,355.5C 240.941,355.198 238.607,355.532 236.5,356.5C 232.154,356.334 227.821,356.501 223.5,357C 222.833,358.333 222.167,359.667 221.5,361C 217.167,361.667 212.833,361.667 208.5,361C 207.833,359.667 207.167,358.333 206.5,357C 201.511,356.501 196.511,356.334 191.5,356.5C 190.53,380.832 189.53,405.165 188.5,429.5C 189.29,441.497 189.457,453.497 189,465.5C 188.02,472.589 186.187,479.422 183.5,486C 145.587,489.905 107.587,491.239 69.5,490C 64.4446,455.773 75.1113,427.439 101.5,405C 117.454,392.595 135.121,389.262 154.5,395C 166.203,399.539 174.87,407.372 180.5,418.5C 181.676,419.821 182.343,421.487 182.5,423.5C 183.684,421.533 183.351,419.866 181.5,418.5C 181.964,397.826 182.631,377.16 183.5,356.5C 160.164,356.333 136.831,356.5 113.5,357C 93.1367,363.424 76.3034,374.924 63,391.5C 64.8458,394.874 66.5125,398.54 68,402.5C 69.5254,410.576 67.0254,417.076 60.5,422C 58.8333,422.667 57.1667,422.667 55.5,422C 47.0452,415.88 38.8785,409.38 31,402.5C 30.6753,400.447 31.0087,398.447 32,396.5C 34.8688,393.296 38.0354,390.463 41.5,388C 46.5544,387.219 51.5544,387.386 56.5,388.5C 66.9552,375.201 79.6218,364.701 94.5,357C 54.0734,356.052 29.5734,335.886 21,296.5C 20.5002,287.84 20.3336,279.173 20.5,270.5C 14.3153,269.831 8.48194,268.164 3,265.5C 2.33333,246.5 2.33333,227.5 3,208.5C 8.48194,205.836 14.3153,204.169 20.5,203.5C 20.3334,190.496 20.5001,177.496 21,164.5C 27.1667,130.333 47.3333,110.167 81.5,104C 120.499,103.5 159.499,103.333 198.5,103.5C 199.167,76.8333 199.833,50.1667 200.5,23.5C 196.885,23.7945 193.718,22.7945 191,20.5C 190.333,14.8333 190.333,9.16667 191,3.5C 192.129,1.85883 193.629,0.858828 195.5,0.5C 196.097,1.13863 196.93,1.47196 198,1.5C 199.699,1.61345 200.866,0.94678 201.5,-0.5 Z M 82.5,111.5 C 163.167,111.333 243.834,111.5 324.5,112C 354,117.5 371.5,135 377,164.5C 377.667,208.167 377.667,251.833 377,295.5C 372.167,325.667 354.667,343.167 324.5,348C 243.833,348.667 163.167,348.667 82.5,348C 52.3333,343.167 34.8333,325.667 30,295.5C 29.3333,251.833 29.3333,208.167 30,164.5C 35.6797,134.987 53.1797,117.321 82.5,111.5 Z M 310.5,260.5 C 313.077,253.034 313.077,245.7 310.5,238.5C 310.598,236.447 309.931,234.78 308.5,233.5C 306.262,228.929 303.262,224.929 299.5,221.5C 295.453,217.808 290.786,215.141 285.5,213.5C 282.887,212.565 280.221,212.398 277.5,213C 268.424,215.019 259.424,217.186 250.5,219.5C 246.163,220.163 243.163,222.496 241.5,226.5C 236.631,230.71 233.965,236.044 233.5,242.5C 232.025,249.159 232.525,255.826 235,262.5C 239.147,268.644 243.98,274.144 249.5,279C 251.5,279.833 253.5,280.667 255.5,281.5C 255.333,281.833 255.167,282.167 255,282.5C 240.579,281.51 226.079,281.176 211.5,281.5C 211.333,260.831 211.5,240.164 212,219.5C 216.318,197.19 229.151,182.356 250.5,175C 275.135,168.88 295.635,175.38 312,194.5C 326.418,216.987 325.918,238.987 310.5,260.5 Z M 200.5,232.5 C 199.833,232.167 199.167,231.833 198.5,231.5C 196.108,226.775 192.441,223.442 187.5,221.5C 178.934,216.42 169.6,214.587 159.5,216C 156.621,216.546 153.954,217.379 151.5,218.5C 148.515,219.326 145.849,220.659 143.5,222.5C 139.88,224.453 136.88,227.119 134.5,230.5C 132.396,232.372 131.063,234.705 130.5,237.5C 128.528,240.084 127.528,243.084 127.5,246.5C 125.485,262.471 131.485,274.471 145.5,282.5C 113.172,281.942 93.6722,265.942 87,234.5C 86.3273,200.37 102.827,180.203 136.5,174C 160.561,171.95 179.395,180.783 193,200.5C 198.599,210.424 201.099,221.091 200.5,232.5 Z M 309.5,262.5 C 309.843,264.483 309.176,265.817 307.5,266.5C 307.5,266.167 307.5,265.833 307.5,265.5C 307.427,263.973 308.094,262.973 309.5,262.5 Z M 199.5,272.5 C 199.46,275.881 199.793,279.214 200.5,282.5C 197.119,282.54 193.786,282.207 190.5,281.5C 193.833,278.833 196.833,275.833 199.5,272.5 Z M 243.5,355.5 C 266.427,356.323 289.427,356.823 312.5,357C 333.113,366.945 347.446,382.612 355.5,404C 353.022,406.478 350.522,408.978 348,411.5C 346.257,414.957 345.257,418.623 345,422.5C 339.72,412.554 331.887,405.387 321.5,401C 300.743,394.55 281.41,397.55 263.5,410C 255.975,416.535 248.975,423.202 242.5,430C 243.33,406.9 243.996,383.733 244.5,360.5C 244.371,358.784 244.038,357.117 243.5,355.5 Z"/></g>
<g><path style="opacity:0.438" fill="#404040" d="M 209.5,-0.5 C 210.833,-0.5 212.167,-0.5 213.5,-0.5C 215.076,0.142944 216.41,1.14294 217.5,2.5C 215.199,1.93957 212.866,1.43957 210.5,1C 209.944,0.617425 209.611,0.117425 209.5,-0.5 Z"/></g>
<g><path style="opacity:1" fill="#5a5a5a" d="M 196.5,2.5 C 202.683,2.04742 208.683,2.54742 214.5,4C 208.126,5.90353 201.793,5.90353 195.5,4C 196.056,3.61742 196.389,3.11742 196.5,2.5 Z"/></g>
<g><path style="opacity:0.832" fill="#000000" d="M 315.5,265.5 C 312.101,267.388 309.101,269.888 306.5,273C 306.728,273.399 307.062,273.565 307.5,273.5C 298.542,281.807 287.875,286.641 275.5,288C 251.927,288.827 228.427,288.66 205,287.5C 181.92,289.254 158.753,289.754 135.5,289C 108.331,285.162 90.1641,270.328 81,244.5C 74.4471,208.773 87.9471,183.939 121.5,170C 152.54,161.294 178.04,169.461 198,194.5C 201.47,199.774 204.136,205.44 206,211.5C 213.058,187.446 228.891,172.613 253.5,167C 283.429,162.053 306.595,172.22 323,197.5C 333,217.167 333,236.833 323,256.5C 320.958,259.94 318.458,262.94 315.5,265.5 Z M 310.5,260.5 C 313.077,253.034 313.077,245.7 310.5,238.5C 310.598,236.447 309.931,234.78 308.5,233.5C 306.262,228.929 303.262,224.929 299.5,221.5C 295.453,217.808 290.786,215.141 285.5,213.5C 282.887,212.565 280.221,212.398 277.5,213C 268.424,215.019 259.424,217.186 250.5,219.5C 246.163,220.163 243.163,222.496 241.5,226.5C 236.631,230.71 233.965,236.044 233.5,242.5C 232.025,249.159 232.525,255.826 235,262.5C 239.147,268.644 243.98,274.144 249.5,279C 251.5,279.833 253.5,280.667 255.5,281.5C 255.333,281.833 255.167,282.167 255,282.5C 240.579,281.51 226.079,281.176 211.5,281.5C 211.333,260.831 211.5,240.164 212,219.5C 216.318,197.19 229.151,182.356 250.5,175C 275.135,168.88 295.635,175.38 312,194.5C 326.418,216.987 325.918,238.987 310.5,260.5 Z M 200.5,232.5 C 199.833,232.167 199.167,231.833 198.5,231.5C 196.108,226.775 192.441,223.442 187.5,221.5C 178.934,216.42 169.6,214.587 159.5,216C 156.621,216.546 153.954,217.379 151.5,218.5C 148.515,219.326 145.849,220.659 143.5,222.5C 139.88,224.453 136.88,227.119 134.5,230.5C 132.396,232.372 131.063,234.705 130.5,237.5C 128.528,240.084 127.528,243.084 127.5,246.5C 125.485,262.471 131.485,274.471 145.5,282.5C 113.172,281.942 93.6722,265.942 87,234.5C 86.3273,200.37 102.827,180.203 136.5,174C 160.561,171.95 179.395,180.783 193,200.5C 198.599,210.424 201.099,221.091 200.5,232.5 Z M 309.5,262.5 C 309.843,264.483 309.176,265.817 307.5,266.5C 307.5,266.167 307.5,265.833 307.5,265.5C 307.427,263.973 308.094,262.973 309.5,262.5 Z M 199.5,272.5 C 199.46,275.881 199.793,279.214 200.5,282.5C 197.119,282.54 193.786,282.207 190.5,281.5C 193.833,278.833 196.833,275.833 199.5,272.5 Z"/></g>
<g><path style="opacity:0.608" fill="#828282" d="M 205.5,212.5 C 207.76,213.238 207.927,214.238 206,215.5C 205.517,214.552 205.351,213.552 205.5,212.5 Z"/></g>
<g><path style="opacity:0.994" fill="#373737" d="M 285.5,213.5 C 285.196,214.15 284.863,214.817 284.5,215.5C 288.487,217.159 292.154,219.326 295.5,222C 279.833,222.667 264.167,222.667 248.5,222C 249.381,221.292 250.047,220.458 250.5,219.5C 259.424,217.186 268.424,215.019 277.5,213C 280.221,212.398 282.887,212.565 285.5,213.5 Z"/></g>
<g><path style="opacity:1" fill="#3a3a3a" d="M 187.5,221.5 C 187.167,222.167 186.833,222.833 186.5,223.5C 173.496,223.667 160.496,223.5 147.5,223C 150.674,221.275 154.007,219.942 157.5,219C 155.314,218.939 153.314,218.772 151.5,218.5C 153.954,217.379 156.621,216.546 159.5,216C 169.6,214.587 178.934,216.42 187.5,221.5 Z"/></g>
<g><path style="opacity:1" fill="#292929" d="M 285.5,213.5 C 290.786,215.141 295.453,217.808 299.5,221.5C 299.586,222.496 299.252,223.329 298.5,224C 300.213,225.378 301.547,227.045 302.5,229C 282.169,229.5 261.836,229.667 241.5,229.5C 242.625,228.348 242.625,227.348 241.5,226.5C 243.163,222.496 246.163,220.163 250.5,219.5C 250.047,220.458 249.381,221.292 248.5,222C 264.167,222.667 279.833,222.667 295.5,222C 292.154,219.326 288.487,217.159 284.5,215.5C 284.863,214.817 285.196,214.15 285.5,213.5 Z"/></g>
<g><path style="opacity:1" fill="#303030" d="M 151.5,218.5 C 153.314,218.772 155.314,218.939 157.5,219C 154.007,219.942 150.674,221.275 147.5,223C 160.496,223.5 173.496,223.667 186.5,223.5C 189.86,224.52 192.527,226.52 194.5,229.5C 175.842,230.666 157.176,230.833 138.5,230C 140.208,227.957 142.208,226.29 144.5,225C 143.748,224.329 143.414,223.496 143.5,222.5C 145.849,220.659 148.515,219.326 151.5,218.5 Z"/></g>
<g><path style="opacity:1" fill="#232323" d="M 187.5,221.5 C 192.441,223.442 196.108,226.775 198.5,231.5C 197.904,232.935 197.904,234.602 198.5,236.5C 177.156,236.833 155.823,236.5 134.5,235.5C 135.624,234.086 136.624,232.586 137.5,231C 136.552,230.517 135.552,230.351 134.5,230.5C 136.88,227.119 139.88,224.453 143.5,222.5C 143.414,223.496 143.748,224.329 144.5,225C 142.208,226.29 140.208,227.957 138.5,230C 157.176,230.833 175.842,230.666 194.5,229.5C 192.527,226.52 189.86,224.52 186.5,223.5C 186.833,222.833 187.167,222.167 187.5,221.5 Z"/></g>
<g><path style="opacity:1" fill="#1d1d1d" d="M 299.5,221.5 C 303.262,224.929 306.262,228.929 308.5,233.5C 307.21,234.058 306.377,235.058 306,236.5C 283.239,235.672 260.406,235.172 237.5,235C 238.697,232.985 240.03,231.151 241.5,229.5C 261.836,229.667 282.169,229.5 302.5,229C 301.547,227.045 300.213,225.378 298.5,224C 299.252,223.329 299.586,222.496 299.5,221.5 Z"/></g>
<g><path style="opacity:1" fill="#171717" d="M 134.5,230.5 C 135.552,230.351 136.552,230.517 137.5,231C 136.624,232.586 135.624,234.086 134.5,235.5C 155.823,236.5 177.156,236.833 198.5,236.5C 197.904,234.602 197.904,232.935 198.5,231.5C 199.167,231.833 199.833,232.167 200.5,232.5C 200.5,233.167 200.833,233.5 201.5,233.5C 201.67,234.822 201.337,235.989 200.5,237C 201.167,237.333 201.833,237.667 202.5,238C 201.587,239.414 201.587,240.914 202.5,242.5C 178.824,242.833 155.157,242.5 131.5,241.5C 132.421,239.969 132.088,238.635 130.5,237.5C 131.063,234.705 132.396,232.372 134.5,230.5 Z"/></g>
<g><path style="opacity:0.993" fill="#0e0e0e" d="M 241.5,226.5 C 242.625,227.348 242.625,228.348 241.5,229.5C 240.03,231.151 238.697,232.985 237.5,235C 260.406,235.172 283.239,235.672 306,236.5C 306.377,235.058 307.21,234.058 308.5,233.5C 309.931,234.78 310.598,236.447 310.5,238.5C 310.77,241.857 310.104,244.191 308.5,245.5C 284.167,245.5 259.833,245.5 235.5,245.5C 235.715,243.821 235.048,242.821 233.5,242.5C 233.965,236.044 236.631,230.71 241.5,226.5 Z"/></g>
<g><path style="opacity:0.999" fill="#0e0e0e" d="M 130.5,237.5 C 132.088,238.635 132.421,239.969 131.5,241.5C 155.157,242.5 178.824,242.833 202.5,242.5C 203.461,244.265 203.795,246.265 203.5,248.5C 179.164,248.667 154.831,248.5 130.5,248C 129.263,247.768 128.263,247.268 127.5,246.5C 127.528,243.084 128.528,240.084 130.5,237.5 Z"/></g>
<g><path style="opacity:0.831" fill="#858585" d="M 307.5,265.5 C 307.5,265.833 307.5,266.167 307.5,266.5C 306.542,266.953 305.708,267.619 305,268.5C 304.481,266.511 305.314,265.511 307.5,265.5 Z"/></g>
<g><path style="opacity:0.337" fill="#616161" d="M 315.5,265.5 C 315.649,266.552 315.483,267.552 315,268.5C 312.618,270.389 310.118,272.055 307.5,273.5C 307.062,273.565 306.728,273.399 306.5,273C 309.101,269.888 312.101,267.388 315.5,265.5 Z"/></g>
<g><path style="opacity:0.833" fill="#000000" d="M 259.5,310.5 C 262.073,310.148 264.406,310.648 266.5,312C 262.543,317.413 258.71,322.913 255,328.5C 253.039,331.135 250.539,332.969 247.5,334C 238,336.167 228.5,338.333 219,340.5C 211.12,336.804 203.954,331.97 197.5,326C 218.094,320.295 238.761,315.128 259.5,310.5 Z"/></g>
<g><path style="opacity:0.582" fill="#7e7e7e" d="M 236.5,356.5 C 238.607,355.532 240.941,355.198 243.5,355.5C 244.038,357.117 244.371,358.784 244.5,360.5C 243.266,357.46 240.932,356.127 237.5,356.5C 237.167,356.5 236.833,356.5 236.5,356.5 Z"/></g>
<g><path style="opacity:0.782" fill="#000000" d="M 208.5,362.5 C 213.099,362.2 217.599,362.533 222,363.5C 222.999,371.486 223.333,379.486 223,387.5C 220.931,388.264 218.764,388.764 216.5,389C 219.334,389.045 221.834,389.879 224,391.5C 224.667,396.167 224.667,400.833 224,405.5C 221.286,408.551 218.286,411.218 215,413.5C 211.714,411.218 208.714,408.551 206,405.5C 205.794,391.065 206.627,376.732 208.5,362.5 Z"/></g>
<g><path style="opacity:0.804" fill="#464646" d="M 180.5,418.5 C 180.833,418.5 181.167,418.5 181.5,418.5C 183.351,419.866 183.684,421.533 182.5,423.5C 182.343,421.487 181.676,419.821 180.5,418.5 Z"/></g>
</svg>
